<?xml version="1.0" standalone="no"?>
<!DOCTYPE svg PUBLIC "-//W3C//DTD SVG 20010904//EN"
 "http://www.w3.org/TR/2001/REC-SVG-20010904/DTD/svg10.dtd">
<svg version="1.0" xmlns="http://www.w3.org/2000/svg"
 width="500.000000pt" height="500.000000pt" viewBox="0 0 500.000000 500.000000"
 preserveAspectRatio="xMidYMid meet">

<g transform="translate(0.000000,500.000000) scale(0.100000,-0.100000)"
fill="#000000" stroke="none">
<path d="M2208 4803 c-20 -26 -63 -104 -97 -173 -114 -234 -136 -274 -151
-281 -20 -9 -158 -49 -194 -56 l-29 -6 7 44 c4 24 18 80 32 123 13 43 23 81
20 83 -6 7 -49 -60 -132 -207 -44 -78 -80 -130 -95 -137 -31 -16 -99 -83 -99
-99 0 -6 -32 -30 -70 -53 -39 -23 -100 -68 -136 -101 -79 -69 -194 -208 -194
-232 0 -10 -6 -18 -13 -18 -7 0 -20 -9 -29 -19 -9 -10 -22 -23 -30 -27 -8 -5
-45 -56 -82 -114 -38 -58 -81 -119 -97 -135 -38 -41 -95 -159 -102 -217 -4
-25 -18 -67 -32 -93 -15 -26 -24 -49 -21 -53 3 -3 -1 -17 -10 -30 -10 -15 -18
-52 -20 -90 -1 -35 -5 -67 -8 -70 -3 -3 -6 -29 -6 -58 0 -29 -5 -56 -11 -60
-6 -3 -8 -17 -5 -29 3 -13 2 -26 -3 -29 -5 -3 -7 -26 -6 -51 2 -25 -1 -47 -6
-51 -5 -3 -5 -12 1 -23 6 -12 6 -31 -1 -56 -10 -37 3 -95 21 -95 17 0 41 -86
51 -182 10 -103 15 -118 60 -178 14 -19 29 -54 33 -78 3 -24 11 -51 16 -60 5
-9 16 -37 24 -62 29 -88 43 -122 53 -129 5 -3 27 -40 49 -83 56 -109 171 -274
213 -304 39 -29 85 -76 108 -111 9 -13 20 -23 25 -23 11 0 150 -110 161 -127
4 -7 21 -20 38 -28 57 -30 86 -73 138 -206 28 -72 51 -135 51 -140 0 -5 3 -9
8 -9 4 0 27 -32 51 -70 23 -38 44 -70 46 -70 1 0 -13 51 -32 112 -32 110 -59
235 -51 244 2 2 26 -11 54 -29 49 -32 84 -47 160 -66 54 -14 77 -49 120 -179
40 -120 163 -379 194 -407 26 -24 25 -11 -4 67 -29 77 -106 388 -106 429 0 34
-3 33 75 14 33 -8 79 -14 103 -15 24 0 52 -5 63 -11 15 -7 24 -7 34 1 9 8 33
9 68 5 33 -4 78 -2 113 6 33 7 64 13 69 14 6 1 57 6 115 10 57 4 111 10 120
15 8 4 40 10 72 14 31 3 63 9 72 12 12 5 16 0 16 -18 0 -59 -62 -245 -150
-453 -32 -75 -35 -85 -21 -85 5 0 16 15 25 34 10 21 25 36 38 38 16 2 32 24
60 78 38 75 127 284 169 395 28 72 36 84 66 96 15 5 21 14 17 24 -4 10 0 15
15 15 12 0 21 -4 21 -10 0 -15 26 -12 40 5 7 9 21 13 31 10 15 -5 17 -3 12 11
-5 14 -2 16 15 12 15 -4 22 -2 22 9 0 29 35 9 38 -22 3 -30 -40 -179 -96 -333
-16 -45 -27 -82 -23 -82 18 0 133 218 195 370 44 109 70 143 128 174 95 51
157 96 175 127 12 20 40 41 83 62 72 34 109 64 110 87 0 8 9 26 20 40 11 14
20 30 20 37 0 7 9 17 20 23 11 6 20 17 20 24 0 7 14 29 31 47 17 19 39 52 49
74 11 22 31 51 45 65 15 14 28 40 31 62 4 21 10 38 14 38 4 0 10 10 13 22 5
19 8 20 23 7 16 -13 17 -12 11 9 -7 28 11 84 24 76 5 -3 9 -1 9 5 0 5 -6 11
-12 14 -9 3 -7 13 10 35 12 17 22 40 22 51 0 27 20 72 41 93 15 14 16 22 6 47
-9 23 -7 42 8 93 17 59 23 99 41 274 7 75 -13 315 -43 499 -14 90 -44 194 -63
220 -4 6 -10 27 -14 47 -8 46 -41 120 -49 112 -3 -3 -13 -2 -23 4 -23 13 -44
77 -37 117 11 65 -127 256 -331 460 -91 91 -210 184 -306 241 -121 70 -181
117 -200 155 -39 75 -122 211 -127 206 -2 -3 9 -46 26 -97 17 -50 31 -99 31
-109 0 -21 -14 -17 -161 37 l-66 24 -43 82 c-86 165 -213 367 -223 356 -3 -3
22 -88 55 -188 33 -102 56 -188 52 -192 -5 -5 -40 -5 -79 1 -183 24 -263 22
-460 -12 -33 -6 -87 -13 -120 -16 -33 -3 -66 -10 -73 -16 -10 -8 -16 -7 -23 4
-5 8 -9 17 -9 20 0 9 56 198 96 323 19 59 33 113 32 118 -2 5 -20 -13 -40 -39z
m8 -565 c75 10 165 7 229 -7 22 -5 87 -10 144 -10 57 -1 107 -4 111 -6 4 -3
52 -7 106 -11 122 -7 162 -19 174 -50 5 -13 25 -85 45 -161 19 -76 41 -160 49
-188 75 -271 86 -328 65 -340 -6 -4 -8 -14 -5 -22 4 -9 1 -22 -5 -29 -6 -8 -9
-21 -5 -30 14 -37 -62 -140 -222 -298 -77 -76 -125 -117 -135 -113 -9 3 -18
36 -27 99 -15 111 -31 156 -82 225 -56 77 -81 86 -53 19 25 -59 30 -154 12
-217 -22 -74 -35 -89 -85 -96 -56 -8 -86 9 -110 61 -31 66 -34 125 -12 212 11
43 19 79 17 80 -4 4 -63 -67 -94 -111 -25 -37 -43 -111 -46 -190 -3 -98 -18
-91 -199 89 -188 187 -230 246 -236 328 -4 58 4 92 62 273 167 518 165 514
209 494 16 -7 46 -7 93 -1z m-326 -101 c0 -36 -162 -459 -259 -675 -28 -62
-53 -135 -57 -161 -6 -46 -5 -49 22 -59 16 -6 54 -28 84 -49 54 -37 55 -39 58
-90 4 -67 -4 -68 -94 -4 -111 79 -110 77 -118 177 -7 88 1 164 31 293 8 35 18
85 23 110 4 25 24 120 45 210 39 173 58 215 104 226 14 4 40 13 56 20 75 33
105 34 105 2z m1399 -34 c34 -23 58 -48 67 -69 33 -80 174 -718 174 -789 0
-22 -76 -124 -125 -168 -74 -66 -428 -268 -443 -252 -7 7 96 116 171 181 115
99 277 266 284 292 7 31 -12 120 -44 197 -78 189 -226 623 -219 642 9 23 71 8
135 -34z m-1785 -112 c6 -9 -17 -92 -93 -341 -28 -91 -58 -189 -67 -217 -9
-29 -20 -53 -25 -53 -5 0 -9 -7 -9 -15 0 -19 -41 -57 -57 -51 -7 3 -15 1 -18
-4 -4 -6 -1 -10 4 -10 15 0 14 -64 -2 -125 -6 -27 -12 -61 -11 -75 1 -14 2
-39 3 -56 1 -35 54 -96 76 -88 7 3 28 -8 45 -23 30 -27 33 -35 38 -106 2 -42
8 -77 12 -77 4 0 11 26 15 58 11 98 14 104 43 97 46 -11 133 -57 302 -157 176
-104 272 -179 255 -197 -6 -5 -80 -26 -164 -46 -146 -33 -193 -42 -415 -81
-50 -9 -130 -26 -178 -39 -113 -28 -122 -39 -123 -150 -1 -93 7 -119 36 -110
16 5 19 1 19 -28 0 -19 7 -40 15 -47 8 -7 15 -23 15 -36 0 -12 14 -49 30 -81
17 -31 30 -65 30 -74 0 -8 11 -42 24 -75 22 -55 55 -174 75 -277 5 -23 23
-106 41 -185 18 -79 30 -146 27 -149 -13 -12 -45 11 -82 58 -22 29 -65 82 -95
119 -143 175 -203 253 -226 291 -6 11 -18 27 -26 36 -42 49 -148 326 -168 438
-14 79 -28 245 -36 410 -2 61 -6 121 -8 135 -2 13 0 95 4 180 8 135 12 164 34
211 13 30 36 86 49 124 27 76 54 135 94 205 14 25 37 65 50 90 48 88 78 138
93 153 8 8 33 41 55 73 22 32 58 77 80 100 22 23 67 70 100 105 83 89 124 115
139 90z m2116 -71 c30 -33 74 -72 97 -87 39 -26 123 -113 123 -128 0 -3 18
-27 39 -53 22 -26 42 -58 46 -72 3 -14 23 -44 44 -66 90 -97 132 -199 156
-374 9 -69 23 -147 32 -175 43 -147 51 -195 55 -340 3 -92 -10 -235 -21 -235
-4 0 -6 -13 -3 -29 4 -27 -31 -187 -48 -220 -17 -34 -53 -168 -54 -198 0 -17
-4 -31 -10 -30 -6 1 -13 -16 -16 -38 -3 -22 -17 -62 -32 -90 -14 -27 -46 -89
-70 -136 -43 -87 -66 -118 -192 -258 -37 -42 -72 -87 -77 -101 -9 -25 -67 -66
-78 -55 -7 8 26 157 83 370 63 235 112 457 136 615 24 152 20 166 -47 195 -21
10 -48 22 -60 27 -12 6 -40 8 -62 5 -22 -3 -43 -2 -46 1 -4 4 -30 8 -60 9
-222 9 -523 58 -517 85 4 19 47 53 122 97 271 160 362 212 407 229 51 19 164
94 197 131 17 19 18 27 7 93 -20 127 -179 672 -230 793 -41 96 -41 110 -3 100
15 -3 52 -33 82 -65z m-1725 -903 c116 -110 122 -139 17 -81 -37 21 -77 44
-89 53 -41 30 -71 121 -39 121 7 0 57 -42 111 -93z m185 -681 c0 -8 -7 -16
-15 -20 -8 -3 -46 -25 -83 -49 -37 -24 -98 -61 -137 -81 -116 -60 -208 -128
-216 -159 -8 -29 4 -117 23 -172 16 -47 238 -924 238 -941 0 -20 -38 -10 -131
37 -42 22 -84 39 -93 39 -9 0 -16 4 -16 8 0 5 -13 23 -29 40 -30 34 -50 110
-91 352 -10 58 -30 173 -45 255 -32 178 -53 338 -62 455 l-6 86 39 16 c136 57
328 106 534 137 81 13 90 12 90 -3z m1043 -62 c50 -13 130 -35 177 -50 111
-35 178 -54 214 -63 16 -3 39 -19 50 -35 33 -44 27 -256 -13 -491 -50 -287
-90 -465 -116 -517 -27 -54 -55 -97 -55 -85 0 4 -9 3 -20 -3 -11 -6 -19 -19
-18 -28 2 -13 -4 -16 -30 -14 -40 4 -90 -17 -98 -40 -3 -10 -12 -18 -20 -18
-21 0 -18 45 10 152 13 51 43 165 66 253 23 88 50 189 60 225 21 69 56 208 71
275 10 51 11 115 1 115 -4 0 -16 14 -26 31 -11 19 -84 74 -209 156 -213 140
-229 152 -221 165 7 11 54 4 177 -28z m-871 -141 c28 -32 50 -161 54 -313 5
-152 7 -170 24 -170 6 0 10 40 10 107 0 76 5 125 19 172 11 36 24 81 28 100 5
19 13 36 18 37 6 2 29 -22 53 -52 27 -34 50 -54 64 -54 11 0 40 18 64 40 24
22 50 40 58 40 13 0 26 -40 26 -81 0 -10 5 -30 11 -46 l11 -28 19 23 c23 29
59 142 59 187 0 19 4 37 10 40 18 11 156 -92 297 -222 l92 -85 -4 -67 c-2 -36
-7 -118 -10 -181 -6 -108 -18 -198 -50 -365 -8 -38 -19 -97 -25 -130 -16 -81
-40 -167 -52 -182 -5 -6 -32 -14 -60 -18 -28 -4 -65 -13 -83 -21 -45 -19 -302
-51 -420 -53 -55 -1 -108 -4 -117 -7 -24 -7 -247 25 -285 41 -22 9 -34 23 -39
42 -3 15 -13 55 -21 88 -18 71 -51 253 -63 345 -5 36 -16 117 -25 180 -8 63
-18 173 -22 243 -7 157 -1 173 106 255 137 105 205 152 221 152 9 0 24 -8 32
-17z"/>
<path d="M4225 1700 c3 -5 8 -10 11 -10 2 0 4 5 4 10 0 6 -5 10 -11 10 -5 0
-7 -4 -4 -10z"/>
<path d="M4160 1420 c0 -5 7 -10 16 -10 8 0 12 5 9 10 -3 6 -10 10 -16 10 -5
0 -9 -4 -9 -10z"/>
<path d="M4137 1364 c6 -15 23 -19 23 -5 0 5 -7 11 -14 14 -10 4 -13 1 -9 -9z"/>
</g>
</svg>
